<svg xmlns="http://www.w3.org/2000/svg" width="1100" height="570" viewBox="0 0 1100 570" font-family="'Malgun Gothic','NanumGothic','Nanum Gothic','Noto Sans KR',sans-serif">
<defs><marker id="a" viewBox="0 0 10 10" refX="9" refY="5" markerWidth="8" markerHeight="8" orient="auto-start-reverse"><path d="M0,0 L10,5 L0,10 z" fill="#4B5563"/></marker><marker id="b" viewBox="0 0 10 10" refX="9" refY="5" markerWidth="8" markerHeight="8" orient="auto-start-reverse"><path d="M0,0 L10,5 L0,10 z" fill="#1F3864"/></marker></defs>
<rect width="1100" height="570" fill="#FFFFFF"/>
<text x="550" y="42" text-anchor="middle" font-size="25" font-weight="bold" fill="#1F3864">AI에게 요청하는 법</text>
<text x="550" y="68" text-anchor="middle" font-size="14" fill="#4B5563">처음 요청은 3요소, 수정 요청은 4요소를 함께 전달한다</text>
<line x1="40" y1="82" x2="1060" y2="82" stroke="#1F3864" stroke-width="1.5"/>
<rect x="40" y="100" width="490" height="346" rx="12" fill="#FFFFFF" stroke="#9CA3AF" stroke-width="1.6"/>
<rect x="40" y="100" width="490" height="36" rx="12" fill="#4B5563" stroke="#4B5563" stroke-width="0"/>
<rect x="40" y="120" width="490" height="16" rx="0" fill="#4B5563" stroke="#4B5563" stroke-width="0"/>
<text x="285" y="125" text-anchor="middle" font-size="16" fill="#FFFFFF" font-weight="bold">처음 요청할 때 — 3요소</text>
<rect x="60" y="156" width="130" height="66" rx="10" fill="#E6ECF5" stroke="#1F3864" stroke-width="2.4"/>
<text x="125.0" y="194.625" text-anchor="middle" font-size="15" fill="#1F3864" font-weight="bold">원하는 것</text>
<rect x="200" y="156" width="310" height="66" rx="10" fill="#FFFFFF" stroke="#9CA3AF" stroke-width="1.6"/>
<text x="355.0" y="194.25" text-anchor="middle" font-size="14" fill="#111827">간단한 금융 AI Assistant</text>
<rect x="60" y="240" width="130" height="66" rx="10" fill="#E6ECF5" stroke="#1F3864" stroke-width="2.4"/>
<text x="125.0" y="278.625" text-anchor="middle" font-size="15" fill="#1F3864" font-weight="bold">조건</text>
<rect x="200" y="240" width="310" height="66" rx="10" fill="#FFFFFF" stroke="#9CA3AF" stroke-width="1.6"/>
<text x="355.0" y="278.25" text-anchor="middle" font-size="14" fill="#111827">투자 추천 금지 · API 키는 환경변수</text>
<rect x="60" y="324" width="130" height="66" rx="10" fill="#E6ECF5" stroke="#1F3864" stroke-width="2.4"/>
<text x="125.0" y="362.625" text-anchor="middle" font-size="15" fill="#1F3864" font-weight="bold">형식</text>
<rect x="200" y="324" width="310" height="66" rx="10" fill="#FFFFFF" stroke="#9CA3AF" stroke-width="1.6"/>
<text x="355.0" y="362.25" text-anchor="middle" font-size="14" fill="#111827">파일 목록과 역할 설명 후 코드 작성</text>
<rect x="570" y="100" width="490" height="346" rx="12" fill="#FFFFFF" stroke="#1F3864" stroke-width="2.2"/>
<rect x="570" y="100" width="490" height="36" rx="12" fill="#1F3864" stroke="#1F3864" stroke-width="0"/>
<rect x="570" y="120" width="490" height="16" rx="0" fill="#1F3864" stroke="#1F3864" stroke-width="0"/>
<text x="815" y="125" text-anchor="middle" font-size="16" fill="#FFFFFF" font-weight="bold">수정 요청할 때 — 4요소</text>
<rect x="590" y="152" width="130" height="60" rx="10" fill="#E6ECF5" stroke="#1F3864" stroke-width="2.4"/>
<text x="655.0" y="187.625" text-anchor="middle" font-size="15" fill="#1F3864" font-weight="bold">문제 상황</text>
<rect x="730" y="152" width="310" height="60" rx="10" fill="#FFFFFF" stroke="#9CA3AF" stroke-width="1.6"/>
<text x="885.0" y="177.1" text-anchor="middle" font-size="14" fill="#111827">&#x27;삼성전자 얼마나 올랐어?&#x27;가</text>
<text x="885.0" y="197.4" text-anchor="middle" font-size="14" fill="#111827">GENERAL로 분류된다</text>
<rect x="590" y="224" width="130" height="60" rx="10" fill="#E6ECF5" stroke="#1F3864" stroke-width="2.4"/>
<text x="655.0" y="259.625" text-anchor="middle" font-size="15" fill="#1F3864" font-weight="bold">기대 결과</text>
<rect x="730" y="224" width="310" height="60" rx="10" fill="#FFFFFF" stroke="#9CA3AF" stroke-width="1.6"/>
<text x="885.0" y="249.1" text-anchor="middle" font-size="14" fill="#111827">STOCK으로</text>
<text x="885.0" y="269.4" text-anchor="middle" font-size="14" fill="#111827">분류되어야 한다</text>
<rect x="590" y="296" width="130" height="60" rx="10" fill="#E6ECF5" stroke="#1F3864" stroke-width="2.4"/>
<text x="655.0" y="331.625" text-anchor="middle" font-size="15" fill="#1F3864" font-weight="bold">현재 구조</text>
<rect x="730" y="296" width="310" height="60" rx="10" fill="#FFFFFF" stroke="#9CA3AF" stroke-width="1.6"/>
<text x="885.0" y="321.09999999999997" text-anchor="middle" font-size="14" fill="#111827">키워드 방식의</text>
<text x="885.0" y="341.4" text-anchor="middle" font-size="14" fill="#111827">route_question()</text>
<rect x="590" y="368" width="130" height="60" rx="10" fill="#E6ECF5" stroke="#1F3864" stroke-width="2.4"/>
<text x="655.0" y="403.625" text-anchor="middle" font-size="15" fill="#1F3864" font-weight="bold">제약조건</text>
<rect x="730" y="368" width="310" height="60" rx="10" fill="#FFFFFF" stroke="#9CA3AF" stroke-width="1.6"/>
<text x="885.0" y="393.09999999999997" text-anchor="middle" font-size="14" fill="#111827">기존 테스트는</text>
<text x="885.0" y="413.4" text-anchor="middle" font-size="14" fill="#111827">깨지 않는다</text>
<rect x="40" y="466" width="490" height="80" rx="10" fill="#FFFFFF" stroke="#9CA3AF" stroke-width="1.6" stroke-dasharray="6 4"/>
<text x="285.0" y="498.2" text-anchor="middle" font-size="14" fill="#4B5563" font-weight="bold">나쁜 예</text>
<text x="285.0" y="518.5" text-anchor="middle" font-size="18" fill="#111827">&quot;고쳐줘&quot;</text>
<rect x="570" y="466" width="490" height="80" rx="10" fill="#E6ECF5" stroke="#1F3864" stroke-width="2.4"/>
<text x="815.0" y="501.09999999999997" text-anchor="middle" font-size="14" fill="#1F3864" font-weight="bold">좋은 예</text>
<text x="815.0" y="521.4" text-anchor="middle" font-size="14" fill="#111827">문제 · 기대 결과 · 현재 구조 · 제약조건을 함께 전달</text>
</svg>
