<svg xmlns="http://www.w3.org/2000/svg" width="1000" height="700" viewBox="0 0 1000 700" font-family="'Malgun Gothic','NanumGothic','Nanum Gothic','Noto Sans KR',sans-serif">
<defs><marker id="a" viewBox="0 0 10 10" refX="9" refY="5" markerWidth="8" markerHeight="8" orient="auto-start-reverse"><path d="M0,0 L10,5 L0,10 z" fill="#475569"/></marker><marker id="g" viewBox="0 0 10 10" refX="9" refY="5" markerWidth="8" markerHeight="8" orient="auto-start-reverse"><path d="M0,0 L10,5 L0,10 z" fill="#16a34a"/></marker><marker id="r" viewBox="0 0 10 10" refX="9" refY="5" markerWidth="8" markerHeight="8" orient="auto-start-reverse"><path d="M0,0 L10,5 L0,10 z" fill="#dc2626"/></marker><marker id="o" viewBox="0 0 10 10" refX="9" refY="5" markerWidth="8" markerHeight="8" orient="auto-start-reverse"><path d="M0,0 L10,5 L0,10 z" fill="#d97706"/></marker><marker id="p" viewBox="0 0 10 10" refX="9" refY="5" markerWidth="8" markerHeight="8" orient="auto-start-reverse"><path d="M0,0 L10,5 L0,10 z" fill="#7c3aed"/></marker><marker id="b" viewBox="0 0 10 10" refX="9" refY="5" markerWidth="8" markerHeight="8" orient="auto-start-reverse"><path d="M0,0 L10,5 L0,10 z" fill="#0284c7"/></marker></defs>
<rect width="1000" height="700" fill="#f8fafc"/>
<text x="500" y="42" text-anchor="middle" font-size="26" font-weight="bold" fill="#0f172a">Day 1~5 의 조각이 그래프의 노드가 된다</text>
<text x="500" y="68" text-anchor="middle" font-size="14" fill="#64748b">오늘 만든 그래프와 지금까지의 기능 대응</text>
<rect x="30" y="100" width="400" height="44" rx="8" fill="#ffffff" stroke="#94a3b8" stroke-width="1.8"/>
<text x="230" y="128" text-anchor="middle" font-size="13.5" fill="#0f172a" font-weight="bold">PII 마스킹  (Day 5)</text>
<line x1="430" y1="122" x2="540" y2="122" stroke="#475569" stroke-width="2.2" marker-end="url(#a)"/>
<rect x="540" y="100" width="430" height="44" rx="8" fill="#fee2e2" stroke="#dc2626" stroke-width="2"/>
<text x="755" y="128" text-anchor="middle" font-size="13" fill="#991b1b" font-weight="bold" font-family="Consolas,'DejaVu Sans Mono','NanumGothicCoding',monospace">mask_node</text>
<rect x="30" y="156" width="400" height="44" rx="8" fill="#ffffff" stroke="#94a3b8" stroke-width="1.8"/>
<text x="230" y="184" text-anchor="middle" font-size="13.5" fill="#0f172a" font-weight="bold">Router · 분류  (Day 1~4)</text>
<line x1="430" y1="178" x2="540" y2="178" stroke="#475569" stroke-width="2.2" marker-end="url(#a)"/>
<rect x="540" y="156" width="430" height="44" rx="8" fill="#ede9fe" stroke="#7c3aed" stroke-width="2"/>
<text x="755" y="184" text-anchor="middle" font-size="13" fill="#5b21b6" font-weight="bold" font-family="Consolas,'DejaVu Sans Mono','NanumGothicCoding',monospace">classify_node</text>
<rect x="30" y="212" width="400" height="44" rx="8" fill="#ffffff" stroke="#94a3b8" stroke-width="1.8"/>
<text x="230" y="240" text-anchor="middle" font-size="13.5" fill="#0f172a" font-weight="bold">시세 Tool  (Day 2~4)</text>
<line x1="430" y1="234" x2="540" y2="234" stroke="#475569" stroke-width="2.2" marker-end="url(#a)"/>
<rect x="540" y="212" width="430" height="44" rx="8" fill="#e0f2fe" stroke="#0284c7" stroke-width="2"/>
<text x="755" y="240" text-anchor="middle" font-size="13" fill="#075985" font-weight="bold" font-family="Consolas,'DejaVu Sans Mono','NanumGothicCoding',monospace">stock_tool_node</text>
<rect x="30" y="268" width="400" height="44" rx="8" fill="#ffffff" stroke="#94a3b8" stroke-width="1.8"/>
<text x="230" y="296" text-anchor="middle" font-size="13.5" fill="#0f172a" font-weight="bold">환율 Tool  (Day 2~4)</text>
<line x1="430" y1="290" x2="540" y2="290" stroke="#475569" stroke-width="2.2" marker-end="url(#a)"/>
<rect x="540" y="268" width="430" height="44" rx="8" fill="#e0f2fe" stroke="#0284c7" stroke-width="2"/>
<text x="755" y="296" text-anchor="middle" font-size="13" fill="#075985" font-weight="bold" font-family="Consolas,'DejaVu Sans Mono','NanumGothicCoding',monospace">exchange_tool_node</text>
<rect x="30" y="324" width="400" height="44" rx="8" fill="#ffffff" stroke="#94a3b8" stroke-width="1.8"/>
<text x="230" y="352" text-anchor="middle" font-size="13.5" fill="#0f172a" font-weight="bold">RAG 문서 검색  (Day 5)</text>
<line x1="430" y1="346" x2="540" y2="346" stroke="#475569" stroke-width="2.2" marker-end="url(#a)"/>
<rect x="540" y="324" width="430" height="44" rx="8" fill="#ede9fe" stroke="#7c3aed" stroke-width="2"/>
<text x="755" y="352" text-anchor="middle" font-size="13" fill="#5b21b6" font-weight="bold" font-family="Consolas,'DejaVu Sans Mono','NanumGothicCoding',monospace">knowledge_node</text>
<rect x="30" y="380" width="400" height="44" rx="8" fill="#ffffff" stroke="#94a3b8" stroke-width="1.8"/>
<text x="230" y="408" text-anchor="middle" font-size="13.5" fill="#0f172a" font-weight="bold">일반 대화  (Day 1~4)</text>
<line x1="430" y1="402" x2="540" y2="402" stroke="#475569" stroke-width="2.2" marker-end="url(#a)"/>
<rect x="540" y="380" width="430" height="44" rx="8" fill="#f1f5f9" stroke="#94a3b8" stroke-width="2"/>
<text x="755" y="408" text-anchor="middle" font-size="13" fill="#334155" font-weight="bold" font-family="Consolas,'DejaVu Sans Mono','NanumGothicCoding',monospace">general_node</text>
<rect x="30" y="436" width="400" height="44" rx="8" fill="#ffffff" stroke="#94a3b8" stroke-width="1.8"/>
<text x="230" y="464" text-anchor="middle" font-size="13.5" fill="#0f172a" font-weight="bold">최종 답변 생성</text>
<line x1="430" y1="458" x2="540" y2="458" stroke="#475569" stroke-width="2.2" marker-end="url(#a)"/>
<rect x="540" y="436" width="430" height="44" rx="8" fill="#dcfce7" stroke="#16a34a" stroke-width="2"/>
<text x="755" y="464" text-anchor="middle" font-size="13" fill="#166534" font-weight="bold" font-family="Consolas,'DejaVu Sans Mono','NanumGothicCoding',monospace">answer_node</text>
<rect x="30" y="492" width="400" height="44" rx="8" fill="#ffffff" stroke="#94a3b8" stroke-width="1.8"/>
<text x="230" y="520" text-anchor="middle" font-size="13.5" fill="#0f172a" font-weight="bold">Kill Switch  (Day 5)</text>
<line x1="430" y1="514" x2="540" y2="514" stroke="#475569" stroke-width="2.2" marker-end="url(#a)"/>
<rect x="540" y="492" width="430" height="44" rx="8" fill="#fef3c7" stroke="#d97706" stroke-width="2"/>
<text x="755" y="520" text-anchor="middle" font-size="13" fill="#92400e" font-weight="bold" font-family="Consolas,'DejaVu Sans Mono','NanumGothicCoding',monospace">steps 카운터 + 조건부 엣지</text>
<rect x="30" y="548" width="400" height="44" rx="8" fill="#ffffff" stroke="#94a3b8" stroke-width="1.8"/>
<text x="230" y="576" text-anchor="middle" font-size="13.5" fill="#0f172a" font-weight="bold">계획 · 점검  (미션 4, 신규)</text>
<line x1="430" y1="570" x2="540" y2="570" stroke="#475569" stroke-width="2.2" marker-end="url(#a)"/>
<rect x="540" y="548" width="430" height="44" rx="8" fill="#fef3c7" stroke="#d97706" stroke-width="2"/>
<text x="755" y="576" text-anchor="middle" font-size="13" fill="#92400e" font-weight="bold" font-family="Consolas,'DejaVu Sans Mono','NanumGothicCoding',monospace">plan · execute · reflect_node</text>
<rect x="30" y="616" width="940" height="50" rx="12" fill="#0f172a"/><text x="500.0" y="646.0" text-anchor="middle" font-size="15" fill="#ffffff" font-weight="bold">기능은 그대로, 흐름이 눈에 보인다 — 다음 기능은 노드 하나와 엣지 몇 개로 추가한다</text>
</svg>
