<svg xmlns="http://www.w3.org/2000/svg" width="1000" height="560" viewBox="0 0 1000 560" font-family="'Malgun Gothic','NanumGothic','Nanum Gothic','Noto Sans KR',sans-serif">
<defs><marker id="a" viewBox="0 0 10 10" refX="9" refY="5" markerWidth="8" markerHeight="8" orient="auto-start-reverse"><path d="M0,0 L10,5 L0,10 z" fill="#475569"/></marker><marker id="g" viewBox="0 0 10 10" refX="9" refY="5" markerWidth="8" markerHeight="8" orient="auto-start-reverse"><path d="M0,0 L10,5 L0,10 z" fill="#16a34a"/></marker><marker id="r" viewBox="0 0 10 10" refX="9" refY="5" markerWidth="8" markerHeight="8" orient="auto-start-reverse"><path d="M0,0 L10,5 L0,10 z" fill="#dc2626"/></marker><marker id="o" viewBox="0 0 10 10" refX="9" refY="5" markerWidth="8" markerHeight="8" orient="auto-start-reverse"><path d="M0,0 L10,5 L0,10 z" fill="#d97706"/></marker><marker id="p" viewBox="0 0 10 10" refX="9" refY="5" markerWidth="8" markerHeight="8" orient="auto-start-reverse"><path d="M0,0 L10,5 L0,10 z" fill="#7c3aed"/></marker><marker id="b" viewBox="0 0 10 10" refX="9" refY="5" markerWidth="8" markerHeight="8" orient="auto-start-reverse"><path d="M0,0 L10,5 L0,10 z" fill="#0284c7"/></marker></defs>
<rect width="1000" height="560" fill="#f8fafc"/>
<text x="500" y="42" text-anchor="middle" font-size="26" font-weight="bold" fill="#0f172a">Day 4 → Day 5</text>
<text x="500" y="68" text-anchor="middle" font-size="14" fill="#64748b">LLM 이 &#x27;모르는 우리 문서&#x27;를 근거와 함께 답하게 만든다</text>
<text x="30" y="106" text-anchor="start" font-size="15" fill="#075985" font-weight="bold">Day 4 (오늘)</text>
<rect x="30" y="116" width="940" height="138" rx="12" fill="#e0f2fe" stroke="#0284c7" stroke-width="2"/>
<rect x="50" y="134" width="200" height="56" rx="8" fill="#ffffff" stroke="#94a3b8" stroke-width="1.6"/>
<text x="150" y="158" text-anchor="middle" font-size="13" fill="#0f172a" font-weight="bold">Function Calling</text>
<text x="150" y="176" text-anchor="middle" font-size="11.5" fill="#475569">+ 멀티턴 + Few-shot</text>
<line x1="250" y1="162" x2="300" y2="162" stroke="#475569" stroke-width="2.2" marker-end="url(#a)"/>
<rect x="300" y="134" width="300" height="56" rx="8" fill="#ffffff" stroke="#94a3b8" stroke-width="1.6"/>
<text x="450" y="158" text-anchor="middle" font-size="13" fill="#0f172a" font-weight="bold">&quot;JIN 스마트 신용대출</text>
<text x="450" y="178" text-anchor="middle" font-size="13" fill="#0f172a" font-weight="bold">중도상환수수료율은?&quot;</text>
<line x1="600" y1="162" x2="650" y2="162" stroke="#475569" stroke-width="2.2" marker-end="url(#a)"/>
<rect x="650" y="126" width="300" height="72" rx="10" fill="#fee2e2" stroke="#dc2626" stroke-width="1.8" stroke-dasharray="6 4"/>
<text x="800" y="150" text-anchor="middle" font-size="13.5" fill="#991b1b" font-weight="bold">근거 자료가 없다</text>
<text x="800" y="172" text-anchor="middle" font-size="12" fill="#0f172a">모른다고 답하거나, 그럴듯하게 지어낼 위험</text>
<text x="800" y="190" text-anchor="middle" font-size="10" fill="#0f172a"></text>
<text x="50" y="238" text-anchor="start" font-size="12.5" fill="#475569">Tool 은 시세 · 환율 · 잔액처럼 &#x27;조회되는 값&#x27;에는 강하지만, 우리 회사 문서의 내용은 알지 못한다</text>
<text x="30" y="296" text-anchor="start" font-size="15" fill="#5b21b6" font-weight="bold">Day 5 (내일) — RAG + PII 마스킹</text>
<rect x="30" y="306" width="940" height="178" rx="12" fill="#ede9fe" stroke="#7c3aed" stroke-width="2"/>
<rect x="65" y="326" width="150" height="60" rx="8" fill="#ffffff" stroke="#94a3b8" stroke-width="1.6"/>
<text x="140" y="352" text-anchor="middle" font-size="12.5" fill="#0f172a" font-weight="bold">문서</text>
<text x="140" y="372" text-anchor="middle" font-size="10.5" fill="#475569">상품 설명서 (txt · pdf)</text>
<line x1="215" y1="356" x2="245" y2="356" stroke="#7c3aed" stroke-width="2.2" marker-end="url(#p)"/>
<rect x="245" y="326" width="150" height="60" rx="8" fill="#ffffff" stroke="#94a3b8" stroke-width="1.6"/>
<text x="320" y="352" text-anchor="middle" font-size="12.5" fill="#0f172a" font-weight="bold">청킹 · 임베딩</text>
<text x="320" y="372" text-anchor="middle" font-size="10.5" fill="#475569">조각내고 숫자 벡터로</text>
<line x1="395" y1="356" x2="425" y2="356" stroke="#7c3aed" stroke-width="2.2" marker-end="url(#p)"/>
<rect x="425" y="326" width="150" height="60" rx="8" fill="#ffffff" stroke="#94a3b8" stroke-width="1.6"/>
<text x="500" y="352" text-anchor="middle" font-size="12.5" fill="#0f172a" font-weight="bold">인덱스 (FAISS)</text>
<text x="500" y="372" text-anchor="middle" font-size="10.5" fill="#475569">벡터 · 원문 · 출처 저장</text>
<line x1="575" y1="356" x2="605" y2="356" stroke="#7c3aed" stroke-width="2.2" marker-end="url(#p)"/>
<rect x="605" y="326" width="150" height="60" rx="8" fill="#dcfce7" stroke="#16a34a" stroke-width="1.8"/>
<text x="680" y="352" text-anchor="middle" font-size="11.5" fill="#166534" font-weight="bold" font-family="Consolas,'DejaVu Sans Mono','NanumGothicCoding',monospace">search_documents</text>
<text x="680" y="372" text-anchor="middle" font-size="10.5" fill="#475569">Tool 로 검색 호출</text>
<line x1="755" y1="356" x2="785" y2="356" stroke="#7c3aed" stroke-width="2.2" marker-end="url(#p)"/>
<rect x="785" y="326" width="150" height="60" rx="8" fill="#ffffff" stroke="#94a3b8" stroke-width="1.6"/>
<text x="860" y="352" text-anchor="middle" font-size="12.5" fill="#166534" font-weight="bold">근거 + 출처로 답변</text>
<text x="860" y="372" text-anchor="middle" font-size="10.5" fill="#475569">점수가 낮으면 &#x27;자료 없음&#x27;</text>
<rect x="50" y="404" width="900" height="60" rx="10" fill="#fef3c7" stroke="#d97706" stroke-width="1.8"/>
<text x="500" y="430" text-anchor="middle" font-size="13" fill="#92400e" font-weight="bold">PII 마스킹 — 개인정보(주민번호 · 전화번호 · 계좌번호)를 AI 와 로그에서 가린다</text>
<text x="500" y="450" text-anchor="middle" font-size="12" fill="#0f172a">입력 · 도구 결과 · 출력 · 저장 · 로그 네 지점마다 한 겹씩</text>
<rect x="30" y="500" width="940" height="40" rx="12" fill="#0f172a"/><text x="500.0" y="525.0" text-anchor="middle" font-size="15" fill="#ffffff" font-weight="bold">RAG 검색도 오늘 배운 Function Calling 위에 Tool 로 얹힌다 — 오늘의 구조가 그대로 쓰인다</text>
</svg>
